<?xml version="1.0" encoding="UTF-8" standalone="no"?>
<!-- Created with Inkscape (http://www.inkscape.org/) -->

<svg
   width="990"
   height="120"
   viewBox="0 0 261.93752 31.75"
   version="1.1"
   id="svg5"
   inkscape:version="1.1.1 (3bf5ae0d25, 2021-09-20)"
   sodipodi:docname="KanaAccount.svg"
   inkscape:export-filename="D:\Renorari\Documents\Works\Kana-Sources\Logo\KanaLogo.png"
   inkscape:export-xdpi="96"
   inkscape:export-ydpi="96"
   xmlns:inkscape="http://www.inkscape.org/namespaces/inkscape"
   xmlns:sodipodi="http://sodipodi.sourceforge.net/DTD/sodipodi-0.dtd"
   xmlns:xlink="http://www.w3.org/1999/xlink"
   xmlns="http://www.w3.org/2000/svg"
   xmlns:svg="http://www.w3.org/2000/svg"
   xmlns:rdf="http://www.w3.org/1999/02/22-rdf-syntax-ns#"
   xmlns:cc="http://creativecommons.org/ns#"
   xmlns:dc="http://purl.org/dc/elements/1.1/">
  <title
     id="title2785">KanaAccount Logo</title>
  <sodipodi:namedview
     id="namedview7"
     pagecolor="#ffffff"
     bordercolor="#999999"
     borderopacity="1"
     inkscape:pageshadow="0"
     inkscape:pageopacity="0"
     inkscape:pagecheckerboard="false"
     inkscape:document-units="px"
     showgrid="true"
     units="px"
     inkscape:zoom="1.1919192"
     inkscape:cx="495"
     inkscape:cy="59.987288"
     inkscape:window-width="1920"
     inkscape:window-height="1009"
     inkscape:window-x="-8"
     inkscape:window-y="-8"
     inkscape:window-maximized="1"
     inkscape:current-layer="layer1">
    <inkscape:grid
       type="xygrid"
       id="grid832"
       spacingx="1.5875"
       spacingy="1.5875" />
    <sodipodi:guide
       position="0,31.750001"
       orientation="0,990"
       id="guide1043" />
    <sodipodi:guide
       position="261.93751,31.750001"
       orientation="120,0"
       id="guide1045" />
    <sodipodi:guide
       position="261.93751,0"
       orientation="0,-990"
       id="guide1047" />
    <sodipodi:guide
       position="0,0"
       orientation="-120,0"
       id="guide1049" />
  </sodipodi:namedview>
  <defs
     id="defs2">
    <linearGradient
       inkscape:collect="always"
       id="linearGradient3254">
      <stop
         style="stop-color:#5599ff;stop-opacity:1;"
         offset="0"
         id="stop3250" />
      <stop
         style="stop-color:#0066ff;stop-opacity:1"
         offset="1"
         id="stop3252" />
    </linearGradient>
    <inkscape:path-effect
       effect="bspline"
       id="path-effect2903"
       is_visible="true"
       lpeversion="1"
       weight="33.333333"
       steps="2"
       helper_size="0"
       apply_no_weight="true"
       apply_with_weight="true"
       only_selected="false" />
    <inkscape:path-effect
       effect="bspline"
       id="path-effect2655"
       is_visible="true"
       lpeversion="1"
       weight="33.333333"
       steps="2"
       helper_size="0"
       apply_no_weight="true"
       apply_with_weight="true"
       only_selected="false" />
    <inkscape:path-effect
       effect="bspline"
       id="path-effect2563"
       is_visible="true"
       lpeversion="1"
       weight="33.333333"
       steps="2"
       helper_size="0"
       apply_no_weight="true"
       apply_with_weight="true"
       only_selected="false" />
    <inkscape:path-effect
       effect="bspline"
       id="path-effect2478"
       is_visible="true"
       lpeversion="1"
       weight="33.333333"
       steps="2"
       helper_size="0"
       apply_no_weight="true"
       apply_with_weight="true"
       only_selected="false" />
    <inkscape:path-effect
       effect="bspline"
       id="path-effect2238"
       is_visible="true"
       lpeversion="1"
       weight="33.333333"
       steps="2"
       helper_size="0"
       apply_no_weight="true"
       apply_with_weight="true"
       only_selected="false" />
    <inkscape:path-effect
       effect="bspline"
       id="path-effect2201"
       is_visible="true"
       lpeversion="1"
       weight="33.333333"
       steps="2"
       helper_size="0"
       apply_no_weight="true"
       apply_with_weight="true"
       only_selected="false" />
    <inkscape:path-effect
       effect="bspline"
       id="path-effect2164"
       is_visible="true"
       lpeversion="1"
       weight="33.333333"
       steps="2"
       helper_size="0"
       apply_no_weight="true"
       apply_with_weight="true"
       only_selected="false" />
    <inkscape:path-effect
       effect="bspline"
       id="path-effect2127"
       is_visible="true"
       lpeversion="1"
       weight="33.333333"
       steps="2"
       helper_size="0"
       apply_no_weight="true"
       apply_with_weight="true"
       only_selected="false" />
    <inkscape:path-effect
       effect="bspline"
       id="path-effect2090"
       is_visible="true"
       lpeversion="1"
       weight="33.333333"
       steps="2"
       helper_size="0"
       apply_no_weight="true"
       apply_with_weight="true"
       only_selected="false" />
    <inkscape:path-effect
       effect="bspline"
       id="path-effect2053"
       is_visible="true"
       lpeversion="1"
       weight="33.333333"
       steps="2"
       helper_size="0"
       apply_no_weight="true"
       apply_with_weight="true"
       only_selected="false" />
    <inkscape:path-effect
       effect="bspline"
       id="path-effect2016"
       is_visible="true"
       lpeversion="1"
       weight="33.333333"
       steps="2"
       helper_size="0"
       apply_no_weight="true"
       apply_with_weight="true"
       only_selected="false" />
    <inkscape:path-effect
       effect="bspline"
       id="path-effect1829"
       is_visible="true"
       lpeversion="1"
       weight="33.333333"
       steps="2"
       helper_size="0"
       apply_no_weight="true"
       apply_with_weight="true"
       only_selected="false" />
    <inkscape:path-effect
       effect="bspline"
       id="path-effect1792"
       is_visible="true"
       lpeversion="1"
       weight="33.333333"
       steps="2"
       helper_size="0"
       apply_no_weight="true"
       apply_with_weight="true"
       only_selected="false" />
    <inkscape:path-effect
       effect="bspline"
       id="path-effect1755"
       is_visible="true"
       lpeversion="1"
       weight="33.333333"
       steps="2"
       helper_size="0"
       apply_no_weight="true"
       apply_with_weight="true"
       only_selected="false" />
    <inkscape:path-effect
       effect="bspline"
       id="path-effect1751"
       is_visible="true"
       lpeversion="1"
       weight="33.333333"
       steps="2"
       helper_size="0"
       apply_no_weight="true"
       apply_with_weight="true"
       only_selected="false" />
    <inkscape:path-effect
       effect="bspline"
       id="path-effect1657"
       is_visible="true"
       lpeversion="1"
       weight="33.333333"
       steps="2"
       helper_size="0"
       apply_no_weight="true"
       apply_with_weight="true"
       only_selected="false" />
    <inkscape:path-effect
       effect="bspline"
       id="path-effect1616"
       is_visible="true"
       lpeversion="1"
       weight="33.333333"
       steps="2"
       helper_size="0"
       apply_no_weight="true"
       apply_with_weight="true"
       only_selected="false" />
    <inkscape:path-effect
       effect="bspline"
       id="path-effect1579"
       is_visible="true"
       lpeversion="1"
       weight="33.333333"
       steps="2"
       helper_size="0"
       apply_no_weight="true"
       apply_with_weight="true"
       only_selected="false" />
    <inkscape:path-effect
       effect="bspline"
       id="path-effect1542"
       is_visible="true"
       lpeversion="1"
       weight="33.333333"
       steps="2"
       helper_size="0"
       apply_no_weight="true"
       apply_with_weight="true"
       only_selected="false" />
    <inkscape:path-effect
       effect="bspline"
       id="path-effect1505"
       is_visible="true"
       lpeversion="1"
       weight="33.333333"
       steps="2"
       helper_size="0"
       apply_no_weight="true"
       apply_with_weight="true"
       only_selected="false" />
    <inkscape:path-effect
       effect="bspline"
       id="path-effect1468"
       is_visible="true"
       lpeversion="1"
       weight="33.333333"
       steps="2"
       helper_size="0"
       apply_no_weight="true"
       apply_with_weight="true"
       only_selected="false" />
    <inkscape:path-effect
       effect="bspline"
       id="path-effect1398"
       is_visible="true"
       lpeversion="1"
       weight="33.333333"
       steps="2"
       helper_size="0"
       apply_no_weight="true"
       apply_with_weight="true"
       only_selected="false" />
    <inkscape:path-effect
       effect="bspline"
       id="path-effect1328"
       is_visible="true"
       lpeversion="1"
       weight="33.333333"
       steps="2"
       helper_size="0"
       apply_no_weight="true"
       apply_with_weight="true"
       only_selected="false" />
    <inkscape:path-effect
       effect="bspline"
       id="path-effect1291"
       is_visible="true"
       lpeversion="1"
       weight="33.333333"
       steps="2"
       helper_size="0"
       apply_no_weight="true"
       apply_with_weight="true"
       only_selected="false" />
    <inkscape:path-effect
       effect="bspline"
       id="path-effect1254"
       is_visible="true"
       lpeversion="1"
       weight="33.333333"
       steps="2"
       helper_size="0"
       apply_no_weight="true"
       apply_with_weight="true"
       only_selected="false" />
    <inkscape:path-effect
       effect="bspline"
       id="path-effect1160"
       is_visible="true"
       lpeversion="1"
       weight="33.333333"
       steps="2"
       helper_size="0"
       apply_no_weight="true"
       apply_with_weight="true"
       only_selected="false" />
    <inkscape:path-effect
       effect="bspline"
       id="path-effect1123"
       is_visible="true"
       lpeversion="1"
       weight="33.333333"
       steps="2"
       helper_size="0"
       apply_no_weight="true"
       apply_with_weight="true"
       only_selected="false" />
    <inkscape:path-effect
       effect="bspline"
       id="path-effect1086"
       is_visible="true"
       lpeversion="1"
       weight="33.333333"
       steps="2"
       helper_size="0"
       apply_no_weight="true"
       apply_with_weight="true"
       only_selected="false" />
    <inkscape:path-effect
       effect="bspline"
       id="path-effect5212"
       is_visible="true"
       lpeversion="1"
       weight="33.333333"
       steps="2"
       helper_size="0"
       apply_no_weight="true"
       apply_with_weight="true"
       only_selected="false" />
    <inkscape:path-effect
       effect="bspline"
       id="path-effect3842"
       is_visible="true"
       lpeversion="1"
       weight="33.333333"
       steps="2"
       helper_size="0"
       apply_no_weight="true"
       apply_with_weight="true"
       only_selected="false" />
    <inkscape:path-effect
       effect="bspline"
       id="path-effect3805"
       is_visible="true"
       lpeversion="1"
       weight="33.333333"
       steps="2"
       helper_size="0"
       apply_no_weight="true"
       apply_with_weight="true"
       only_selected="false" />
    <inkscape:path-effect
       effect="bspline"
       id="path-effect3651"
       is_visible="true"
       lpeversion="1"
       weight="33.333333"
       steps="2"
       helper_size="0"
       apply_no_weight="true"
       apply_with_weight="true"
       only_selected="false" />
    <inkscape:path-effect
       effect="bspline"
       id="path-effect3614"
       is_visible="true"
       lpeversion="1"
       weight="33.333333"
       steps="2"
       helper_size="0"
       apply_no_weight="true"
       apply_with_weight="true"
       only_selected="false" />
    <inkscape:path-effect
       effect="bspline"
       id="path-effect3610"
       is_visible="true"
       lpeversion="1"
       weight="33.333333"
       steps="2"
       helper_size="0"
       apply_no_weight="true"
       apply_with_weight="true"
       only_selected="false" />
    <inkscape:path-effect
       effect="bspline"
       id="path-effect1930"
       is_visible="true"
       lpeversion="1"
       weight="33.333333"
       steps="2"
       helper_size="0"
       apply_no_weight="true"
       apply_with_weight="true"
       only_selected="false" />
    <inkscape:path-effect
       effect="bspline"
       id="path-effect1893"
       is_visible="true"
       lpeversion="1"
       weight="33.333333"
       steps="2"
       helper_size="0"
       apply_no_weight="true"
       apply_with_weight="true"
       only_selected="false" />
    <inkscape:path-effect
       effect="bspline"
       id="path-effect1611"
       is_visible="true"
       lpeversion="1"
       weight="33.333333"
       steps="2"
       helper_size="0"
       apply_no_weight="true"
       apply_with_weight="true"
       only_selected="false" />
    <inkscape:path-effect
       effect="bspline"
       id="path-effect1574"
       is_visible="true"
       lpeversion="1"
       weight="33.333333"
       steps="2"
       helper_size="0"
       apply_no_weight="true"
       apply_with_weight="true"
       only_selected="false" />
    <inkscape:path-effect
       effect="bspline"
       id="path-effect1537"
       is_visible="true"
       lpeversion="1"
       weight="33.333333"
       steps="2"
       helper_size="0"
       apply_no_weight="true"
       apply_with_weight="true"
       only_selected="false" />
    <inkscape:path-effect
       effect="bspline"
       id="path-effect1101"
       is_visible="true"
       lpeversion="1"
       weight="33.333333"
       steps="2"
       helper_size="0"
       apply_no_weight="true"
       apply_with_weight="true"
       only_selected="false" />
    <inkscape:path-effect
       effect="bspline"
       id="path-effect1060"
       is_visible="true"
       lpeversion="1"
       weight="33.333333"
       steps="2"
       helper_size="0"
       apply_no_weight="true"
       apply_with_weight="true"
       only_selected="false" />
    <inkscape:path-effect
       effect="bspline"
       id="path-effect1023"
       is_visible="true"
       lpeversion="1"
       weight="33.333333"
       steps="2"
       helper_size="0"
       apply_no_weight="true"
       apply_with_weight="true"
       only_selected="false" />
    <inkscape:path-effect
       effect="bspline"
       id="path-effect986"
       is_visible="true"
       lpeversion="1"
       weight="33.333333"
       steps="2"
       helper_size="0"
       apply_no_weight="true"
       apply_with_weight="true"
       only_selected="false" />
    <color-profile
       name="sRGB-IEC61966-2.1"
       xlink:href="file:///C:/WINDOWS/system32/spool/drivers/color/sRGB%20Color%20Space%20Profile.icm"
       id="color-profile3311" />
    <linearGradient
       inkscape:collect="always"
       id="linearGradient2699">
      <stop
         style="stop-color:#ff5599;stop-opacity:1;"
         offset="0"
         id="stop2695" />
      <stop
         style="stop-color:#ff0066;stop-opacity:1"
         offset="1"
         id="stop2697" />
    </linearGradient>
    <inkscape:path-effect
       effect="bspline"
       id="path-effect1807"
       is_visible="true"
       lpeversion="1"
       weight="33.333333"
       steps="2"
       helper_size="0"
       apply_no_weight="true"
       apply_with_weight="true"
       only_selected="false" />
    <inkscape:path-effect
       effect="bspline"
       id="path-effect1770"
       is_visible="true"
       lpeversion="1"
       weight="33.333333"
       steps="2"
       helper_size="0"
       apply_no_weight="true"
       apply_with_weight="true"
       only_selected="false" />
    <inkscape:path-effect
       effect="bspline"
       id="path-effect1766"
       is_visible="true"
       lpeversion="1"
       weight="33.333333"
       steps="2"
       helper_size="0"
       apply_no_weight="true"
       apply_with_weight="true"
       only_selected="false" />
    <inkscape:path-effect
       effect="bspline"
       id="path-effect1729"
       is_visible="true"
       lpeversion="1"
       weight="33.333333"
       steps="2"
       helper_size="0"
       apply_no_weight="true"
       apply_with_weight="true"
       only_selected="false" />
    <inkscape:path-effect
       effect="bspline"
       id="path-effect1638"
       is_visible="true"
       lpeversion="1"
       weight="33.333333"
       steps="2"
       helper_size="0"
       apply_no_weight="true"
       apply_with_weight="true"
       only_selected="false" />
    <inkscape:path-effect
       effect="bspline"
       id="path-effect1601"
       is_visible="true"
       lpeversion="1"
       weight="33.333333"
       steps="2"
       helper_size="0"
       apply_no_weight="true"
       apply_with_weight="true"
       only_selected="false" />
    <inkscape:path-effect
       effect="bspline"
       id="path-effect1597"
       is_visible="true"
       lpeversion="1"
       weight="33.333333"
       steps="2"
       helper_size="0"
       apply_no_weight="true"
       apply_with_weight="true"
       only_selected="false" />
    <inkscape:path-effect
       effect="bspline"
       id="path-effect1560"
       is_visible="true"
       lpeversion="1"
       weight="33.333333"
       steps="2"
       helper_size="0"
       apply_no_weight="true"
       apply_with_weight="true"
       only_selected="false" />
    <inkscape:path-effect
       effect="bspline"
       id="path-effect1523"
       is_visible="true"
       lpeversion="1"
       weight="33.333333"
       steps="2"
       helper_size="0"
       apply_no_weight="true"
       apply_with_weight="true"
       only_selected="false" />
    <inkscape:path-effect
       effect="bspline"
       id="path-effect1482"
       is_visible="true"
       lpeversion="1"
       weight="33.333333"
       steps="2"
       helper_size="0"
       apply_no_weight="true"
       apply_with_weight="true"
       only_selected="false" />
    <inkscape:path-effect
       effect="bspline"
       id="path-effect1192"
       is_visible="true"
       lpeversion="1"
       weight="33.333333"
       steps="2"
       helper_size="0"
       apply_no_weight="true"
       apply_with_weight="true"
       only_selected="false" />
    <inkscape:path-effect
       effect="bspline"
       id="path-effect1155"
       is_visible="true"
       lpeversion="1"
       weight="33.333333"
       steps="2"
       helper_size="0"
       apply_no_weight="true"
       apply_with_weight="true"
       only_selected="false" />
    <inkscape:path-effect
       effect="bspline"
       id="path-effect1114"
       is_visible="true"
       lpeversion="1"
       weight="33.333333"
       steps="2"
       helper_size="0"
       apply_no_weight="true"
       apply_with_weight="true"
       only_selected="false" />
    <inkscape:path-effect
       effect="bspline"
       id="path-effect869"
       is_visible="true"
       lpeversion="1"
       weight="33.333333"
       steps="2"
       helper_size="0"
       apply_no_weight="true"
       apply_with_weight="true"
       only_selected="false" />
    <linearGradient
       inkscape:collect="always"
       xlink:href="#linearGradient2699"
       id="linearGradient2701"
       x1="7.9375"
       y1="23.8125"
       x2="87.3125"
       y2="7.9375"
       gradientUnits="userSpaceOnUse" />
    <linearGradient
       inkscape:collect="always"
       xlink:href="#linearGradient3254"
       id="linearGradient3256"
       x1="103.1875"
       y1="23.8125"
       x2="254"
       y2="7.9375"
       gradientUnits="userSpaceOnUse" />
  </defs>
  <g
     inkscape:label="Layer 1"
     inkscape:groupmode="layer"
     id="layer1">
    <g
       id="g2663"
       style="fill:url(#linearGradient2701);fill-opacity:1">
      <path
         style="fill:url(#linearGradient2701);fill-opacity:1;stroke:none;stroke-width:0.264583;stroke-linecap:round;stroke-linejoin:round;stroke-miterlimit:4;stroke-dasharray:none;stroke-opacity:1"
         d="M 4.7625,2.6458333 C 4.2332011,2.645701 3.7040344,3.1748677 3.4394511,7.6730008 3.1748677,12.171134 3.1748677,20.637632 3.4395884,25.135554 c 0.2647207,4.497921 0.7938773,5.027078 1.322917,5.02694 0.5290397,-1.37e-4 1.0581958,-0.529293 1.322779,-2.381276 0.2645833,-1.851983 0.2645833,-5.02692 2.6460275,-4.762318 2.3814441,0.264603 7.1438491,3.968695 9.7895411,5.556076 2.645693,1.587381 3.174849,1.058224 1.852043,-0.529183 C 19.050091,26.458386 15.875154,23.812606 13.229304,21.695915 10.583455,19.579224 8.4668304,17.991756 8.4667245,16.404113 8.4666187,14.816471 10.583244,13.229002 13.229101,11.112314 15.874957,8.9956263 19.049894,6.3498462 20.372924,4.7624839 21.695955,3.1751216 21.166799,2.6459655 18.520804,4.2333561 15.874809,5.8207467 11.112404,9.5248393 8.7311359,9.7895371 6.3498677,10.054235 6.3498677,6.8792989 6.0854114,5.0272103 5.820955,3.1751217 5.2917989,2.6459656 4.7625,2.6458333 Z"
         id="path1595"
         inkscape:path-effect="#path-effect1597"
         inkscape:original-d="m 4.7623677,2.1165344 c -0.5289021,0.5294312 -1.0580687,1.0585979 -1.5875,1.5875 2.646e-4,8.4670996 2.646e-4,16.9335976 0,25.3999996 0.5294418,0.529441 1.0585979,1.058598 1.5875,1.5875 0.5294418,-0.528913 1.0585979,-1.058069 1.5875,-1.5875 2.646e-4,-3.174799 2.646e-4,-6.349736 0,-9.525 4.7628603,3.704505 9.5252643,7.408598 14.2875003,11.1125 0.529442,-0.528913 1.058598,-1.058069 1.5875,-1.5875 -3.174799,-2.645622 -6.349736,-5.291402 -9.525,-7.9375 -2.116445,-1.587267 -4.2330692,-3.174736 -6.3500003,-4.7625 2.1169731,-1.587267 4.2335983,-3.174736 6.3500003,-4.7625 3.175328,-2.6456214 6.350264,-5.2914018 9.525,-7.9374996 -0.528913,-0.5289127 -1.058069,-1.0580688 -1.5875,-1.5875 -4.762331,3.7045053 -9.524736,7.4085979 -14.2875003,11.1124996 2.646e-4,-3.174799 2.646e-4,-6.3497351 0,-9.5249996 -0.5289127,-0.5289127 -1.0580688,-1.0580688 -1.5875,-1.5875 z" />
      <path
         style="fill:url(#linearGradient2701);fill-opacity:1;stroke:none;stroke-width:0.264583;stroke-linecap:round;stroke-linejoin:round;stroke-miterlimit:4;stroke-dasharray:none;stroke-opacity:1"
         d="m 26.9875,30.1625 c -0.529034,1.32e-4 -1.058201,-0.529034 1e-6,-5.027085 1.058201,-4.498051 3.703981,-12.964548 5.291512,-17.4625531 1.587531,-4.4980051 2.116687,-5.0271611 2.645992,-5.0270235 0.529304,1.377e-4 1.05846,0.5292937 2.645904,5.0273211 1.587443,4.4980275 4.233224,12.9645255 5.291503,17.4622885 1.058278,4.497763 0.529122,5.02692 8.2e-5,5.027047 -0.529039,1.27e-4 -1.058195,-0.529029 -2.381217,-4.233238 -1.323022,-3.70421 -3.439646,-10.583239 -5.556408,-10.583245 -2.116763,-5e-6 -4.233387,6.879024 -5.556283,10.583112 -1.322895,3.704088 -1.852052,4.233244 -2.381086,4.233376 z"
         id="path1636"
         inkscape:path-effect="#path-effect1638"
         inkscape:original-d="m 26.987368,30.691535 c -0.528903,-0.528902 -1.058069,-1.058069 -1.5875,-1.5875 2.64615,-8.466572 5.291931,-16.933069 7.937499,-25.4000008 0.529442,-0.5289127 1.058598,-1.0580688 1.5875,-1.5875 0.529442,0.5294418 1.058598,1.0585979 1.5875,1.5875 2.646151,8.4671008 5.291932,16.9335988 7.9375,25.4000008 -0.528912,0.529441 -1.058068,1.058598 -1.5875,1.5875 -0.528912,-0.528913 -1.058068,-1.058069 -1.5875,-1.5875 -2.116444,-6.87904 -4.233068,-13.758069 -6.35,-20.6375009 -2.116444,6.8795699 -4.233068,13.7585989 -6.35,20.6375009 -0.528912,0.529441 -1.058068,1.058598 -1.587499,1.5875 z" />
      <path
         style="fill:url(#linearGradient2701);fill-opacity:1;stroke:none;stroke-width:0.264583;stroke-linecap:round;stroke-linejoin:round;stroke-miterlimit:4;stroke-dasharray:none;stroke-opacity:1"
         d="m 50.8,30.1625 c 0.529034,-1.33e-4 1.058201,-0.529299 1.322785,-4.233403 0.264583,-3.704103 0.264583,-10.583132 2.381387,-10.58304 2.116805,9.2e-5 6.350053,6.87912 8.731345,10.583269 2.381293,3.70415 2.910449,4.233306 3.439489,4.233168 0.52904,-1.37e-4 1.058196,-0.529294 1.322779,-5.027163 0.264583,-4.497869 0.264583,-12.964366 1.27e-4,-17.4622876 C 67.733455,3.1751217 67.204299,2.6459657 66.674995,2.6458388 66.145691,2.645712 65.616535,3.174868 65.616551,6.8792454 65.616567,10.583623 66.145723,17.462651 64.029103,17.462591 61.912482,17.462532 57.150077,10.583503 54.504266,6.8793126 51.858455,3.1751217 51.329299,2.6459656 50.799995,2.6458388 50.270691,2.6457119 49.741535,3.174868 49.476951,7.673001 49.212368,12.171134 49.212368,20.637632 49.477089,25.135554 49.74181,29.633476 50.270966,30.162632 50.8,30.1625 Z"
         id="path1764"
         inkscape:path-effect="#path-effect1766"
         inkscape:original-d="m 50.799868,30.691534 c 0.529431,-0.528902 1.058598,-1.058069 1.5875,-1.5875 2.65e-4,-6.87904 2.65e-4,-13.758069 0,-20.6374996 4.233683,6.8795686 8.466931,13.7585976 12.7,20.6374996 0.529442,0.529441 1.058598,1.058598 1.5875,1.5875 0.529442,-0.528913 1.058598,-1.058069 1.5875,-1.5875 2.64e-4,-8.466572 2.64e-4,-16.933069 0,-25.3999994 -0.528913,-0.5289127 -1.058069,-1.0580688 -1.5875,-1.5875001 -0.528913,0.5294419 -1.058069,1.058598 -1.5875,1.5875001 0.529442,6.8795694 1.058598,13.7585974 1.5875,20.6374994 -4.762331,-6.87904 -9.524735,-13.758069 -14.2875,-20.6374995 -0.528913,-0.5289127 -1.058069,-1.0580688 -1.5875,-1.5875 -0.528913,0.5294418 -1.058069,1.0585979 -1.5875,1.5875 2.65e-4,8.4670995 2.65e-4,16.9335975 0,25.3999995 0.529442,0.529441 1.058598,1.058598 1.5875,1.5875 z" />
      <path
         style="fill:url(#linearGradient2701);fill-opacity:1;stroke:none;stroke-width:0.264583;stroke-linecap:round;stroke-linejoin:round;stroke-miterlimit:4;stroke-dasharray:none;stroke-opacity:1"
         d="m 74.6125,30.1625 c -0.529034,1.32e-4 -1.058202,-0.529036 0,-5.027087 1.058202,-4.498051 3.703982,-12.964547 5.291513,-17.4625517 1.58753,-4.4980041 2.116688,-5.0271622 2.645992,-5.0270245 0.529303,1.376e-4 1.058461,0.5292956 2.645904,5.0273223 1.587443,4.4980269 4.233223,12.9645229 5.291503,17.4622859 1.05828,4.497763 0.529121,5.026922 8.2e-5,5.027049 -0.529038,1.28e-4 -1.058196,-0.52903 -2.381218,-4.233241 -1.323021,-3.70421 -3.439645,-10.583238 -5.556408,-10.583242 -2.116762,-5e-6 -4.233386,6.879023 -5.556281,10.58311 -1.322895,3.704087 -1.852054,4.233246 -2.381087,4.233379 z"
         id="path1805"
         inkscape:path-effect="#path-effect1807"
         inkscape:original-d="m 74.612367,30.691533 c -0.5289,-0.528902 -1.05807,-1.058069 -1.5875,-1.5875 2.64615,-8.466572 5.29193,-16.933069 7.9375,-25.3999995 0.52944,-0.5289127 1.0586,-1.0580688 1.5875,-1.5875 0.52944,0.5294418 1.0586,1.0585979 1.5875,1.5875 2.646151,8.4671005 5.29193,16.9335975 7.9375,25.3999995 -0.52891,0.529441 -1.05807,1.058598 -1.5875,1.5875 -0.52891,-0.528913 -1.05807,-1.058069 -1.5875,-1.5875 -2.11645,-6.87904 -4.23307,-13.758069 -6.35,-20.6374996 -2.11645,6.8795686 -4.23307,13.7585976 -6.35,20.6374996 -0.52891,0.529441 -1.05807,1.058598 -1.5875,1.5875 z" />
    </g>
    <g
       id="g3218"
       style="fill-opacity:1;fill:url(#linearGradient3256)">
      <path
         style="fill:url(#linearGradient3256);stroke:none;stroke-width:0.264583px;stroke-linecap:butt;stroke-linejoin:miter;stroke-opacity:1;fill-opacity:1.0"
         d="m 98.425001,30.162501 c -0.529034,1.32e-4 -1.058203,-0.529036 0,-5.027087 1.058202,-4.49805 3.703979,-12.964549 5.291519,-17.462553 1.58753,-4.4980044 2.11668,-5.0271625 2.64599,-5.0270248 0.5293,1.376e-4 1.05846,0.5292957 2.6459,5.0273225 1.58745,4.4980273 4.23323,12.9645233 5.2915,17.4622873 1.05828,4.497764 0.52913,5.026922 9e-5,5.027049 -0.52904,1.28e-4 -1.0582,-0.52903 -2.38122,-4.23324 -1.32302,-3.704209 -3.43965,-10.58324 -5.55641,-10.583246 -2.11676,-5e-6 -4.23338,6.879025 -5.55628,10.583113 -1.322897,3.704089 -1.852056,4.233246 -2.381089,4.233379 z"
         id="path1158"
         inkscape:path-effect="#path-effect1160"
         inkscape:original-d="m 98.424868,30.691534 c -0.5289,-0.528902 -1.05807,-1.058069 -1.5875,-1.5875 2.64615,-8.466572 5.291932,-16.93307 7.937502,-25.400001 0.52944,-0.5289127 1.0586,-1.0580689 1.5875,-1.5875001 0.52944,0.5294418 1.0586,1.058598 1.5875,1.5875001 2.64615,8.467101 5.29193,16.933598 7.9375,25.400001 -0.52891,0.529442 -1.05807,1.058598 -1.5875,1.5875 -0.52891,-0.528913 -1.05807,-1.058069 -1.5875,-1.5875 -2.11644,-6.879041 -4.23307,-13.75807 -6.35,-20.6375012 -2.11644,6.8795692 -4.23307,13.7585982 -6.35,20.6375012 -0.528912,0.529442 -1.058072,1.058598 -1.587502,1.5875 z" />
      <path
         style="fill:url(#linearGradient3256);stroke:none;stroke-width:0.264583px;stroke-linecap:butt;stroke-linejoin:miter;stroke-opacity:1;fill-opacity:1.0"
         d="m 136.52501,7.9375 c 0.26471,0.5291663 0.79388,1.0583348 1.32292,1.0581971 0.52904,-1.378e-4 1.05819,-0.5292958 1.32278,-1.3229236 0.26458,-0.7936277 0.26458,-1.8519397 -1.32279,-2.9103632 -1.58738,-1.0584235 -4.76232,-2.1167367 -7.67285,-2.116806 -2.91053,-6.93e-5 -5.55631,1.0582427 -7.4085,3.4396447 -1.85218,2.381402 -2.9105,6.085495 -2.91042,9.789768 8e-5,3.704274 1.0584,7.408367 2.91062,9.789534 1.85222,2.381168 4.498,3.43948 7.40837,3.439379 2.91037,-1.01e-4 6.0853,-1.058411 7.67273,-2.116598 1.58742,-1.058186 1.58742,-2.116498 1.32296,-2.910253 -0.26445,-0.793754 -0.79361,-1.322912 -1.32291,-1.32304 -0.52931,-1.27e-4 -1.05846,0.529031 -1.32305,1.058335 -0.26458,0.529304 -0.26458,1.05846 -1.32284,1.587477 -1.05827,0.529017 -3.17489,1.058173 -5.29151,0.79368 -2.11663,-0.264492 -4.23325,-1.322803 -5.5563,-3.174839 -1.32305,-1.852037 -1.8522,-4.497818 -1.85225,-7.143728 -4e-5,-2.645911 0.52911,-5.291691 1.85212,-7.1439128 1.32301,-1.8522214 3.43964,-2.9105358 5.55643,-3.1750485 2.11679,-0.2645127 4.23342,0.2646447 5.29159,0.7939099 1.05818,0.5292652 1.05818,1.0584212 1.3229,1.5875874 z"
         id="path1655"
         inkscape:path-effect="#path-effect1657"
         inkscape:original-d="m 136.26029,7.9372358 c 0.52943,0.529431 1.0586,1.058598 1.5875,1.5875 0.52944,-0.528913 1.0586,-1.058069 1.5875,-1.5875 2.6e-4,-1.05809 2.6e-4,-2.116402 0,-3.175 -3.1748,-1.05809 -6.34974,-2.116402 -9.525,-3.175 -2.64562,1.058619 -5.2914,2.116931 -7.9375,3.175 -1.05809,3.704505 -2.1164,7.4085982 -3.175,11.1125002 1.05862,3.704505 2.11693,7.408598 3.175,11.112501 2.64615,1.058619 5.29193,2.116931 7.9375,3.175 3.17533,-1.05809 6.35026,-2.116402 9.525,-3.175 2.6e-4,-1.058091 2.6e-4,-2.116403 0,-3.175001 -0.52891,-0.528913 -1.05807,-1.058069 -1.5875,-1.5875 -0.52891,0.529442 -1.05807,1.058598 -1.5875,1.5875 2.6e-4,0.529442 2.6e-4,1.058598 0,1.5875 -2.11645,0.529442 -4.23307,1.058599 -6.35,1.587501 -2.11645,-1.058091 -4.23307,-2.116403 -6.35,-3.175001 -0.52891,-2.645622 -1.05807,-5.291402 -1.5875,-7.9375 0.52944,-2.645622 1.0586,-5.291402 1.5875,-7.9375002 2.11697,-1.05809 4.2336,-2.116402 6.35,-3.175 2.11697,0.529442 4.2336,1.058598 6.35,1.5875 2.6e-4,0.529442 2.6e-4,1.058598 0,1.5875 z" />
      <path
         style="fill:url(#linearGradient3256);stroke:none;stroke-width:0.264583px;stroke-linecap:butt;stroke-linejoin:miter;stroke-opacity:1;fill-opacity:1.0"
         d="m 160.33751,7.9375 c 0.26471,0.5291663 0.79388,1.0583348 1.32292,1.0581971 0.52904,-1.378e-4 1.05819,-0.5292958 1.32278,-1.3229236 0.26458,-0.7936277 0.26458,-1.8519397 -1.32279,-2.9103632 -1.58738,-1.0584235 -4.76232,-2.1167367 -7.67285,-2.116806 -2.91053,-6.93e-5 -5.55631,1.0582427 -7.4085,3.4396447 -1.85218,2.381402 -2.9105,6.085495 -2.91042,9.789768 8e-5,3.704274 1.0584,7.408367 2.91062,9.789534 1.85222,2.381168 4.498,3.43948 7.40837,3.439379 2.91037,-1.01e-4 6.0853,-1.058411 7.67273,-2.116598 1.58742,-1.058186 1.58742,-2.116498 1.32296,-2.910253 -0.26445,-0.793754 -0.79361,-1.322912 -1.32291,-1.32304 -0.52931,-1.27e-4 -1.05846,0.529031 -1.32305,1.058335 -0.26458,0.529304 -0.26458,1.05846 -1.32284,1.587477 -1.05827,0.529017 -3.17489,1.058173 -5.29151,0.79368 -2.11663,-0.264492 -4.23325,-1.322803 -5.5563,-3.174839 -1.32305,-1.852037 -1.8522,-4.497818 -1.85225,-7.143728 -4e-5,-2.645911 0.52911,-5.291691 1.85212,-7.1439128 1.32301,-1.8522214 3.43964,-2.9105358 5.55643,-3.1750485 2.11679,-0.2645127 4.23342,0.2646447 5.29159,0.7939099 1.05818,0.5292652 1.05818,1.0584212 1.3229,1.5875874 z"
         id="path1655-9"
         inkscape:path-effect="#path-effect2563"
         inkscape:original-d="m 160.07279,7.9372358 c 0.52943,0.529431 1.0586,1.058598 1.5875,1.5875 0.52944,-0.528913 1.0586,-1.058069 1.5875,-1.5875 2.6e-4,-1.05809 2.6e-4,-2.116402 0,-3.175 -3.1748,-1.05809 -6.34974,-2.116402 -9.525,-3.175 -2.64562,1.058619 -5.2914,2.116931 -7.9375,3.175 -1.05809,3.704505 -2.1164,7.4085982 -3.175,11.1125002 1.05862,3.704505 2.11693,7.408598 3.175,11.112501 2.64615,1.058619 5.29193,2.116931 7.9375,3.175 3.17533,-1.05809 6.35026,-2.116402 9.525,-3.175 2.6e-4,-1.058091 2.6e-4,-2.116403 0,-3.175001 -0.52891,-0.528913 -1.05807,-1.058069 -1.5875,-1.5875 -0.52891,0.529442 -1.05807,1.058598 -1.5875,1.5875 2.6e-4,0.529442 2.6e-4,1.058598 0,1.5875 -2.11645,0.529442 -4.23307,1.058599 -6.35,1.587501 -2.11645,-1.058091 -4.23307,-2.116403 -6.35,-3.175001 -0.52891,-2.645622 -1.05807,-5.291402 -1.5875,-7.9375 0.52944,-2.645622 1.0586,-5.291402 1.5875,-7.9375002 2.11697,-1.05809 4.2336,-2.116402 6.35,-3.175 2.11697,0.529442 4.2336,1.058598 6.35,1.5875 2.6e-4,0.529442 2.6e-4,1.058598 0,1.5875 z" />
      <path
         id="path1749"
         style="fill:url(#linearGradient3256);stroke:none;stroke-width:0.264583px;stroke-linecap:butt;stroke-linejoin:miter;stroke-opacity:1;fill-opacity:1.0"
         d="m 177.8,2.6458333 c -2.64595,-8.13e-5 -5.29156,1.0581812 -7.14375,3.4395834 -1.85219,2.3814022 -2.9105,6.0858263 -2.91042,9.7901003 8e-5,3.704274 1.0582,7.407899 2.91042,9.789067 1.85222,2.381168 4.49798,3.439684 7.14375,3.439583 2.64577,-10e-5 5.29175,-1.05841 7.14375,-3.439583 1.852,-2.381173 2.91036,-6.08545 2.91042,-9.789584 6e-5,-3.704133 -1.05845,-7.4082396 -2.91042,-9.7895833 C 183.09178,3.704073 180.44595,2.6459145 177.8,2.6458333 Z M 177.8,6.35 c 3.70429,1.284e-4 7.40842,4.76258 7.40833,9.525 -9e-5,4.76242 -3.70425,9.524826 -7.40833,9.525001 -3.70407,1.74e-4 -7.40817,-4.762327 -7.40833,-9.525001 -1.7e-4,-4.762674 3.70404,-9.5251283 7.40833,-9.525 z" />
      <path
         style="fill:url(#linearGradient3256);stroke:none;stroke-width:0.264583px;stroke-linecap:butt;stroke-linejoin:miter;stroke-opacity:1;fill-opacity:1.0"
         d="m 211.1375,5.5563786 c -0.26445,-2.3812494 -0.79362,-2.9104178 -1.32293,-2.9105426 -0.5293,-1.249e-4 -1.05845,0.5290282 -1.32304,4.2333961 -0.26458,3.7043679 -0.26458,10.5833969 -1.32288,14.5519999 -1.05831,3.968603 -3.17493,5.026914 -5.29151,5.02701 -2.11658,9.6e-5 -4.23321,-1.058219 -5.2917,-5.026985 -1.05849,-3.968766 -1.05849,-10.847795 -1.32295,-14.5519665 -0.26445,-3.7041716 -0.79361,-4.2333297 -1.32291,-4.233457 -0.52931,-1.274e-4 -1.05846,0.5290307 -1.32305,2.910455 -0.26458,2.3814242 -0.26458,6.6146735 4e-5,10.0543035 0.26462,3.43963 0.79377,6.085411 2.38142,8.466646 1.58764,2.381234 4.23342,4.497859 6.87915,4.497709 2.64573,-1.5e-4 5.29151,-2.116774 6.87898,-4.497937 1.58747,-2.381162 2.11662,-5.026942 2.38123,-8.466537 0.2646,-3.439595 0.2646,-7.672845 1.5e-4,-10.0540944 z"
         id="path2236"
         inkscape:path-effect="#path-effect2238"
         inkscape:original-d="m 211.40195,3.7040303 c -0.5289,-0.5289021 -1.05807,-1.0580689 -1.5875,-1.5875001 -0.52892,0.5294418 -1.05807,1.058598 -1.5875,1.5875001 2.6e-4,6.8795697 2.6e-4,13.7585987 0,20.6375007 -2.11645,1.058619 -4.23307,2.116931 -6.35,3.175001 -2.11644,-1.058091 -4.23307,-2.116403 -6.35,-3.175001 2.6e-4,-6.87904 2.6e-4,-13.758069 0,-20.6375007 -0.52891,-0.5289127 -1.05807,-1.0580689 -1.5875,-1.5875001 -0.52891,0.5294418 -1.05807,1.058598 -1.5875,1.5875001 2.6e-4,4.2336824 2.6e-4,8.4669317 0,12.7000007 0.52944,2.646151 1.0586,5.291931 1.5875,7.9375 2.64615,2.116973 5.29193,4.233599 7.9375,6.350001 2.64615,-2.116445 5.29193,-4.23307 7.9375,-6.350001 0.52944,-2.645622 1.0586,-5.291402 1.5875,-7.9375 2.6e-4,-4.233153 2.6e-4,-8.466403 0,-12.7000007 z" />
      <path
         style="fill:url(#linearGradient3256);fill-opacity:1.0;stroke:none;stroke-width:0.264583;stroke-linecap:round;stroke-linejoin:round;stroke-miterlimit:4;stroke-dasharray:none;stroke-opacity:1"
         d="m 217.4875,30.162501 c 0.52904,-1.33e-4 1.0582,-0.529302 1.32279,-4.233404 0.26458,-3.704103 0.26458,-10.583132 2.38138,-10.583041 2.11681,9.1e-5 6.35006,6.879121 8.73135,10.58327 2.38129,3.704148 2.91045,4.233307 3.43949,4.233169 0.52904,-1.37e-4 1.05819,-0.529296 1.32278,-5.027164 0.26458,-4.497869 0.26458,-12.964366 1.2e-4,-17.4622898 -0.26446,-4.4979238 -0.79361,-5.0270768 -1.32291,-5.0272043 -0.52931,-1.275e-4 -1.05846,0.5290305 -1.05845,4.2334081 2e-5,3.704378 0.52918,10.583406 -1.58745,10.583347 -2.11662,-6e-5 -6.87902,-6.879091 -9.52483,-10.5832828 -2.64582,-3.7041918 -3.17497,-4.2333448 -3.70427,-4.2334723 -0.52931,-1.275e-4 -1.05846,0.5290305 -1.32305,5.0271638 -0.26458,4.4981333 -0.26458,12.9646313 1.4e-4,17.4625523 0.26472,4.497921 0.79388,5.02708 1.32291,5.026948 z"
         id="path1764-3"
         inkscape:path-effect="#path-effect2478"
         inkscape:original-d="m 217.48737,30.691534 c 0.52943,-0.528902 1.0586,-1.058069 1.5875,-1.5875 2.6e-4,-6.87904 2.6e-4,-13.758069 0,-20.6375006 4.23368,6.8795696 8.46693,13.7585986 12.7,20.6375006 0.52944,0.529441 1.0586,1.058598 1.5875,1.5875 0.52944,-0.528913 1.0586,-1.058069 1.5875,-1.5875 2.6e-4,-8.466572 2.6e-4,-16.933069 0,-25.4000006 -0.52892,-0.528912 -1.05807,-1.058068 -1.5875,-1.5875 -0.52891,0.529442 -1.05807,1.058598 -1.5875,1.5875 0.52944,6.8795706 1.0586,13.7585986 1.5875,20.6375006 -4.76233,-6.87904 -9.52474,-13.758069 -14.2875,-20.6375006 -0.52892,-0.528912 -1.05807,-1.058068 -1.5875,-1.5875 -0.52891,0.529442 -1.05807,1.058598 -1.5875,1.5875 2.6e-4,8.4671006 2.6e-4,16.9335986 0,25.4000006 0.52944,0.529441 1.0586,1.058598 1.5875,1.5875 z" />
      <path
         style="fill:url(#linearGradient3256);stroke:none;stroke-width:0.264583px;stroke-linecap:butt;stroke-linejoin:miter;stroke-opacity:1;fill-opacity:1.0"
         d="m 247.65001,24.804935 c 0.26471,3.704166 0.79388,4.233335 1.32292,4.233197 0.52904,-1.37e-4 1.05819,-0.529296 1.32278,-4.233399 0.26458,-3.704103 0.26458,-10.583132 0.52917,-14.287436 0.26459,-3.7043031 0.79374,-4.2334612 1.85223,-4.498044 1.05848,-0.2645828 2.64595,-0.2645828 3.70416,-0.5291718 1.0582,-0.264589 1.58736,-0.7937437 1.58748,-1.3227839 1.3e-4,-0.5290401 -0.52902,-1.0581947 -3.43949,-1.3229108 -2.91047,-0.2647161 -8.20204,-0.2647161 -11.11259,-1.282e-4 -2.91056,0.264588 -3.43971,0.7937459 -3.43958,1.3230493 1.4e-4,0.5293035 0.5293,1.0584616 1.58764,1.3229121 1.05835,0.2644505 2.64582,0.2644505 3.70416,0.5291709 1.05834,0.2647205 1.5875,0.7938786 1.85195,4.4981134 0.26445,3.704235 0.26445,10.583264 0.52917,14.287431 z"
         id="path2901"
         inkscape:path-effect="#path-effect2903"
         inkscape:original-d="m 247.38529,27.979671 c 0.52943,0.529431 1.0586,1.058598 1.5875,1.5875 0.52944,-0.528913 1.0586,-1.058069 1.5875,-1.5875 2.6e-4,-6.879041 2.6e-4,-13.75807 0,-20.6375008 0.52944,-0.5289126 1.0586,-1.0580687 1.5875,-1.5875 1.5878,2.646e-4 3.17527,2.646e-4 4.76251,0 0.52944,-0.5289127 1.05859,-1.0580688 1.58749,-1.5875 -0.52891,-0.5289127 -1.05806,-1.0580686 -1.58749,-1.5874998 -5.29151,2.646e-4 -10.58308,2.646e-4 -15.87501,0 -0.52891,0.5294418 -1.05807,1.0585977 -1.5875,1.5874998 0.52944,0.5294418 1.0586,1.0585979 1.5875,1.5875 1.58779,2.646e-4 3.17526,2.646e-4 4.7625,0 0.52944,0.5294418 1.0586,1.0585979 1.5875,1.5875 2.6e-4,6.8795688 2.6e-4,13.7585978 0,20.6375008 z" />
    </g>
  </g>
  <metadata
     id="metadata2783">
    <rdf:RDF>
      <cc:Work
         rdf:about="">
        <dc:title>KanaAccount Logo</dc:title>
        <dc:date>2022/06/20</dc:date>
        <dc:creator>
          <cc:Agent>
            <dc:title>Renorari</dc:title>
          </cc:Agent>
        </dc:creator>
        <dc:rights>
          <cc:Agent>
            <dc:title>(c) 2022 Renorari</dc:title>
          </cc:Agent>
        </dc:rights>
        <dc:subject>
          <rdf:Bag>
            <rdf:li>Kana</rdf:li>
            <rdf:li>Logo</rdf:li>
            <rdf:li>Renorari</rdf:li>
          </rdf:Bag>
        </dc:subject>
        <dc:description>Kanaに使用されるロゴです。</dc:description>
      </cc:Work>
    </rdf:RDF>
  </metadata>
</svg>
