<?xml version="1.0" encoding="UTF-8" standalone="no"?>
<!-- Created with Inkscape (http://www.inkscape.org/) -->

<svg
   width="780"
   height="120"
   viewBox="0 0 206.37501 31.75"
   version="1.1"
   id="svg5"
   inkscape:version="1.1.1 (3bf5ae0d25, 2021-09-20)"
   sodipodi:docname="KanaVoice.svg"
   inkscape:export-filename="D:\Renorari\Documents\Works\Kana-Sources\Logo\KanaLogo.png"
   inkscape:export-xdpi="96"
   inkscape:export-ydpi="96"
   xmlns:inkscape="http://www.inkscape.org/namespaces/inkscape"
   xmlns:sodipodi="http://sodipodi.sourceforge.net/DTD/sodipodi-0.dtd"
   xmlns:xlink="http://www.w3.org/1999/xlink"
   xmlns="http://www.w3.org/2000/svg"
   xmlns:svg="http://www.w3.org/2000/svg"
   xmlns:rdf="http://www.w3.org/1999/02/22-rdf-syntax-ns#"
   xmlns:cc="http://creativecommons.org/ns#"
   xmlns:dc="http://purl.org/dc/elements/1.1/">
  <title
     id="title2785">KanaVoice Logo</title>
  <sodipodi:namedview
     id="namedview7"
     pagecolor="#ffffff"
     bordercolor="#999999"
     borderopacity="1"
     inkscape:pageshadow="0"
     inkscape:pageopacity="0"
     inkscape:pagecheckerboard="false"
     inkscape:document-units="px"
     showgrid="true"
     units="px"
     inkscape:zoom="0.65702005"
     inkscape:cx="467.26123"
     inkscape:cy="60.119931"
     inkscape:window-width="1920"
     inkscape:window-height="1009"
     inkscape:window-x="-8"
     inkscape:window-y="-8"
     inkscape:window-maximized="1"
     inkscape:current-layer="layer1">
    <inkscape:grid
       type="xygrid"
       id="grid832"
       spacingx="1.5875"
       spacingy="1.5875" />
    <sodipodi:guide
       position="0,31.750001"
       orientation="0,780"
       id="guide4986" />
    <sodipodi:guide
       position="206.375,31.750001"
       orientation="120,0"
       id="guide4988" />
    <sodipodi:guide
       position="206.375,0"
       orientation="0,-780"
       id="guide4990" />
    <sodipodi:guide
       position="0,0"
       orientation="-120,0"
       id="guide4992" />
  </sodipodi:namedview>
  <defs
     id="defs2">
    <linearGradient
       inkscape:collect="always"
       id="linearGradient4204">
      <stop
         style="stop-color:#5599ff;stop-opacity:1"
         offset="0"
         id="stop4200" />
      <stop
         style="stop-color:#0066ff;stop-opacity:1"
         offset="1"
         id="stop4202" />
    </linearGradient>
    <inkscape:path-effect
       effect="bspline"
       id="path-effect3311"
       is_visible="true"
       lpeversion="1"
       weight="33.333333"
       steps="2"
       helper_size="0"
       apply_no_weight="true"
       apply_with_weight="true"
       only_selected="false" />
    <inkscape:path-effect
       effect="bspline"
       id="path-effect3307"
       is_visible="true"
       lpeversion="1"
       weight="33.333333"
       steps="2"
       helper_size="0"
       apply_no_weight="true"
       apply_with_weight="true"
       only_selected="false" />
    <inkscape:path-effect
       effect="bspline"
       id="path-effect3270"
       is_visible="true"
       lpeversion="1"
       weight="33.333333"
       steps="2"
       helper_size="0"
       apply_no_weight="true"
       apply_with_weight="true"
       only_selected="false" />
    <inkscape:path-effect
       effect="bspline"
       id="path-effect2911"
       is_visible="true"
       lpeversion="1"
       weight="33.333333"
       steps="2"
       helper_size="0"
       apply_no_weight="true"
       apply_with_weight="true"
       only_selected="false" />
    <inkscape:path-effect
       effect="bspline"
       id="path-effect2489"
       is_visible="true"
       lpeversion="1"
       weight="33.333333"
       steps="2"
       helper_size="0"
       apply_no_weight="true"
       apply_with_weight="true"
       only_selected="false" />
    <inkscape:path-effect
       effect="bspline"
       id="path-effect2452"
       is_visible="true"
       lpeversion="1"
       weight="33.333333"
       steps="2"
       helper_size="0"
       apply_no_weight="true"
       apply_with_weight="true"
       only_selected="false" />
    <inkscape:path-effect
       effect="bspline"
       id="path-effect2411"
       is_visible="true"
       lpeversion="1"
       weight="33.333333"
       steps="2"
       helper_size="0"
       apply_no_weight="true"
       apply_with_weight="true"
       only_selected="false" />
    <inkscape:path-effect
       effect="bspline"
       id="path-effect2370"
       is_visible="true"
       lpeversion="1"
       weight="33.333333"
       steps="2"
       helper_size="0"
       apply_no_weight="true"
       apply_with_weight="true"
       only_selected="false" />
    <inkscape:path-effect
       effect="bspline"
       id="path-effect1894"
       is_visible="true"
       lpeversion="1"
       weight="33.333333"
       steps="2"
       helper_size="0"
       apply_no_weight="true"
       apply_with_weight="true"
       only_selected="false" />
    <inkscape:path-effect
       effect="skeletal"
       id="path-effect1889"
       is_visible="true"
       lpeversion="1"
       pattern="M 0,4.9921387 C 0,2.2364781 2.2364781,0 4.9921387,0 c 2.7556605,0 4.9921387,2.2364781 4.9921387,4.9921387 0,2.7556605 -2.2364782,4.9921387 -4.9921387,4.9921387 C 2.2364781,9.9842774 0,7.7477992 0,4.9921387 Z"
       copytype="single_stretched"
       prop_scale="1"
       scale_y_rel="false"
       spacing="0"
       normal_offset="0"
       tang_offset="0"
       prop_units="false"
       vertical_pattern="false"
       hide_knot="false"
       fuse_tolerance="0" />
    <inkscape:path-effect
       effect="bspline"
       id="path-effect5212"
       is_visible="true"
       lpeversion="1"
       weight="33.333333"
       steps="2"
       helper_size="0"
       apply_no_weight="true"
       apply_with_weight="true"
       only_selected="false" />
    <inkscape:path-effect
       effect="bspline"
       id="path-effect3842"
       is_visible="true"
       lpeversion="1"
       weight="33.333333"
       steps="2"
       helper_size="0"
       apply_no_weight="true"
       apply_with_weight="true"
       only_selected="false" />
    <inkscape:path-effect
       effect="bspline"
       id="path-effect3805"
       is_visible="true"
       lpeversion="1"
       weight="33.333333"
       steps="2"
       helper_size="0"
       apply_no_weight="true"
       apply_with_weight="true"
       only_selected="false" />
    <inkscape:path-effect
       effect="bspline"
       id="path-effect3651"
       is_visible="true"
       lpeversion="1"
       weight="33.333333"
       steps="2"
       helper_size="0"
       apply_no_weight="true"
       apply_with_weight="true"
       only_selected="false" />
    <inkscape:path-effect
       effect="bspline"
       id="path-effect3614"
       is_visible="true"
       lpeversion="1"
       weight="33.333333"
       steps="2"
       helper_size="0"
       apply_no_weight="true"
       apply_with_weight="true"
       only_selected="false" />
    <inkscape:path-effect
       effect="bspline"
       id="path-effect3610"
       is_visible="true"
       lpeversion="1"
       weight="33.333333"
       steps="2"
       helper_size="0"
       apply_no_weight="true"
       apply_with_weight="true"
       only_selected="false" />
    <inkscape:path-effect
       effect="bspline"
       id="path-effect1930"
       is_visible="true"
       lpeversion="1"
       weight="33.333333"
       steps="2"
       helper_size="0"
       apply_no_weight="true"
       apply_with_weight="true"
       only_selected="false" />
    <inkscape:path-effect
       effect="bspline"
       id="path-effect1893"
       is_visible="true"
       lpeversion="1"
       weight="33.333333"
       steps="2"
       helper_size="0"
       apply_no_weight="true"
       apply_with_weight="true"
       only_selected="false" />
    <inkscape:path-effect
       effect="bspline"
       id="path-effect1611"
       is_visible="true"
       lpeversion="1"
       weight="33.333333"
       steps="2"
       helper_size="0"
       apply_no_weight="true"
       apply_with_weight="true"
       only_selected="false" />
    <inkscape:path-effect
       effect="bspline"
       id="path-effect1574"
       is_visible="true"
       lpeversion="1"
       weight="33.333333"
       steps="2"
       helper_size="0"
       apply_no_weight="true"
       apply_with_weight="true"
       only_selected="false" />
    <inkscape:path-effect
       effect="bspline"
       id="path-effect1537"
       is_visible="true"
       lpeversion="1"
       weight="33.333333"
       steps="2"
       helper_size="0"
       apply_no_weight="true"
       apply_with_weight="true"
       only_selected="false" />
    <inkscape:path-effect
       effect="bspline"
       id="path-effect1101"
       is_visible="true"
       lpeversion="1"
       weight="33.333333"
       steps="2"
       helper_size="0"
       apply_no_weight="true"
       apply_with_weight="true"
       only_selected="false" />
    <inkscape:path-effect
       effect="bspline"
       id="path-effect1060"
       is_visible="true"
       lpeversion="1"
       weight="33.333333"
       steps="2"
       helper_size="0"
       apply_no_weight="true"
       apply_with_weight="true"
       only_selected="false" />
    <inkscape:path-effect
       effect="bspline"
       id="path-effect1023"
       is_visible="true"
       lpeversion="1"
       weight="33.333333"
       steps="2"
       helper_size="0"
       apply_no_weight="true"
       apply_with_weight="true"
       only_selected="false" />
    <inkscape:path-effect
       effect="bspline"
       id="path-effect986"
       is_visible="true"
       lpeversion="1"
       weight="33.333333"
       steps="2"
       helper_size="0"
       apply_no_weight="true"
       apply_with_weight="true"
       only_selected="false" />
    <color-profile
       name="sRGB-IEC61966-2.1"
       xlink:href="file:///C:/WINDOWS/system32/spool/drivers/color/sRGB%20Color%20Space%20Profile.icm"
       id="color-profile5029" />
    <linearGradient
       inkscape:collect="always"
       id="linearGradient2699">
      <stop
         style="stop-color:#ff5599;stop-opacity:1;"
         offset="0"
         id="stop2695" />
      <stop
         style="stop-color:#ff0066;stop-opacity:1"
         offset="1"
         id="stop2697" />
    </linearGradient>
    <inkscape:path-effect
       effect="bspline"
       id="path-effect1807"
       is_visible="true"
       lpeversion="1"
       weight="33.333333"
       steps="2"
       helper_size="0"
       apply_no_weight="true"
       apply_with_weight="true"
       only_selected="false" />
    <inkscape:path-effect
       effect="bspline"
       id="path-effect1770"
       is_visible="true"
       lpeversion="1"
       weight="33.333333"
       steps="2"
       helper_size="0"
       apply_no_weight="true"
       apply_with_weight="true"
       only_selected="false" />
    <inkscape:path-effect
       effect="bspline"
       id="path-effect1766"
       is_visible="true"
       lpeversion="1"
       weight="33.333333"
       steps="2"
       helper_size="0"
       apply_no_weight="true"
       apply_with_weight="true"
       only_selected="false" />
    <inkscape:path-effect
       effect="bspline"
       id="path-effect1729"
       is_visible="true"
       lpeversion="1"
       weight="33.333333"
       steps="2"
       helper_size="0"
       apply_no_weight="true"
       apply_with_weight="true"
       only_selected="false" />
    <inkscape:path-effect
       effect="bspline"
       id="path-effect1638"
       is_visible="true"
       lpeversion="1"
       weight="33.333333"
       steps="2"
       helper_size="0"
       apply_no_weight="true"
       apply_with_weight="true"
       only_selected="false" />
    <inkscape:path-effect
       effect="bspline"
       id="path-effect1601"
       is_visible="true"
       lpeversion="1"
       weight="33.333333"
       steps="2"
       helper_size="0"
       apply_no_weight="true"
       apply_with_weight="true"
       only_selected="false" />
    <inkscape:path-effect
       effect="bspline"
       id="path-effect1597"
       is_visible="true"
       lpeversion="1"
       weight="33.333333"
       steps="2"
       helper_size="0"
       apply_no_weight="true"
       apply_with_weight="true"
       only_selected="false" />
    <inkscape:path-effect
       effect="bspline"
       id="path-effect1560"
       is_visible="true"
       lpeversion="1"
       weight="33.333333"
       steps="2"
       helper_size="0"
       apply_no_weight="true"
       apply_with_weight="true"
       only_selected="false" />
    <inkscape:path-effect
       effect="bspline"
       id="path-effect1523"
       is_visible="true"
       lpeversion="1"
       weight="33.333333"
       steps="2"
       helper_size="0"
       apply_no_weight="true"
       apply_with_weight="true"
       only_selected="false" />
    <inkscape:path-effect
       effect="bspline"
       id="path-effect1482"
       is_visible="true"
       lpeversion="1"
       weight="33.333333"
       steps="2"
       helper_size="0"
       apply_no_weight="true"
       apply_with_weight="true"
       only_selected="false" />
    <inkscape:path-effect
       effect="bspline"
       id="path-effect1192"
       is_visible="true"
       lpeversion="1"
       weight="33.333333"
       steps="2"
       helper_size="0"
       apply_no_weight="true"
       apply_with_weight="true"
       only_selected="false" />
    <inkscape:path-effect
       effect="bspline"
       id="path-effect1155"
       is_visible="true"
       lpeversion="1"
       weight="33.333333"
       steps="2"
       helper_size="0"
       apply_no_weight="true"
       apply_with_weight="true"
       only_selected="false" />
    <inkscape:path-effect
       effect="bspline"
       id="path-effect1114"
       is_visible="true"
       lpeversion="1"
       weight="33.333333"
       steps="2"
       helper_size="0"
       apply_no_weight="true"
       apply_with_weight="true"
       only_selected="false" />
    <inkscape:path-effect
       effect="bspline"
       id="path-effect869"
       is_visible="true"
       lpeversion="1"
       weight="33.333333"
       steps="2"
       helper_size="0"
       apply_no_weight="true"
       apply_with_weight="true"
       only_selected="false" />
    <linearGradient
       inkscape:collect="always"
       xlink:href="#linearGradient2699"
       id="linearGradient2701"
       x1="7.9375"
       y1="23.8125"
       x2="87.3125"
       y2="7.9375"
       gradientUnits="userSpaceOnUse" />
    <linearGradient
       inkscape:collect="always"
       xlink:href="#linearGradient4204"
       id="linearGradient4206"
       x1="103.1875"
       y1="23.8125"
       x2="198.4375"
       y2="7.9375"
       gradientUnits="userSpaceOnUse" />
  </defs>
  <g
     inkscape:label="Layer 1"
     inkscape:groupmode="layer"
     id="layer1">
    <g
       id="g2663"
       style="fill:url(#linearGradient2701);fill-opacity:1">
      <path
         style="fill:url(#linearGradient2701);fill-opacity:1;stroke:none;stroke-width:0.264583;stroke-linecap:round;stroke-linejoin:round;stroke-miterlimit:4;stroke-dasharray:none;stroke-opacity:1"
         d="M 4.7625,2.6458333 C 4.2332011,2.645701 3.7040344,3.1748677 3.4394511,7.6730008 3.1748677,12.171134 3.1748677,20.637632 3.4395884,25.135554 c 0.2647207,4.497921 0.7938773,5.027078 1.322917,5.02694 0.5290397,-1.37e-4 1.0581958,-0.529293 1.322779,-2.381276 0.2645833,-1.851983 0.2645833,-5.02692 2.6460275,-4.762318 2.3814441,0.264603 7.1438491,3.968695 9.7895411,5.556076 2.645693,1.587381 3.174849,1.058224 1.852043,-0.529183 C 19.050091,26.458386 15.875154,23.812606 13.229304,21.695915 10.583455,19.579224 8.4668304,17.991756 8.4667245,16.404113 8.4666187,14.816471 10.583244,13.229002 13.229101,11.112314 15.874957,8.9956263 19.049894,6.3498462 20.372924,4.7624839 21.695955,3.1751216 21.166799,2.6459655 18.520804,4.2333561 15.874809,5.8207467 11.112404,9.5248393 8.7311359,9.7895371 6.3498677,10.054235 6.3498677,6.8792989 6.0854114,5.0272103 5.820955,3.1751217 5.2917989,2.6459656 4.7625,2.6458333 Z"
         id="path1595"
         inkscape:path-effect="#path-effect1597"
         inkscape:original-d="m 4.7623677,2.1165344 c -0.5289021,0.5294312 -1.0580687,1.0585979 -1.5875,1.5875 2.646e-4,8.4670996 2.646e-4,16.9335976 0,25.3999996 0.5294418,0.529441 1.0585979,1.058598 1.5875,1.5875 0.5294418,-0.528913 1.0585979,-1.058069 1.5875,-1.5875 2.646e-4,-3.174799 2.646e-4,-6.349736 0,-9.525 4.7628603,3.704505 9.5252643,7.408598 14.2875003,11.1125 0.529442,-0.528913 1.058598,-1.058069 1.5875,-1.5875 -3.174799,-2.645622 -6.349736,-5.291402 -9.525,-7.9375 -2.116445,-1.587267 -4.2330692,-3.174736 -6.3500003,-4.7625 2.1169731,-1.587267 4.2335983,-3.174736 6.3500003,-4.7625 3.175328,-2.6456214 6.350264,-5.2914018 9.525,-7.9374996 -0.528913,-0.5289127 -1.058069,-1.0580688 -1.5875,-1.5875 -4.762331,3.7045053 -9.524736,7.4085979 -14.2875003,11.1124996 2.646e-4,-3.174799 2.646e-4,-6.3497351 0,-9.5249996 -0.5289127,-0.5289127 -1.0580688,-1.0580688 -1.5875,-1.5875 z" />
      <path
         style="fill:url(#linearGradient2701);fill-opacity:1;stroke:none;stroke-width:0.264583;stroke-linecap:round;stroke-linejoin:round;stroke-miterlimit:4;stroke-dasharray:none;stroke-opacity:1"
         d="m 26.9875,30.1625 c -0.529034,1.32e-4 -1.058201,-0.529034 1e-6,-5.027085 1.058201,-4.498051 3.703981,-12.964548 5.291512,-17.4625531 1.587531,-4.4980051 2.116687,-5.0271611 2.645992,-5.0270235 0.529304,1.377e-4 1.05846,0.5292937 2.645904,5.0273211 1.587443,4.4980275 4.233224,12.9645255 5.291503,17.4622885 1.058278,4.497763 0.529122,5.02692 8.2e-5,5.027047 -0.529039,1.27e-4 -1.058195,-0.529029 -2.381217,-4.233238 -1.323022,-3.70421 -3.439646,-10.583239 -5.556408,-10.583245 -2.116763,-5e-6 -4.233387,6.879024 -5.556283,10.583112 -1.322895,3.704088 -1.852052,4.233244 -2.381086,4.233376 z"
         id="path1636"
         inkscape:path-effect="#path-effect1638"
         inkscape:original-d="m 26.987368,30.691535 c -0.528903,-0.528902 -1.058069,-1.058069 -1.5875,-1.5875 2.64615,-8.466572 5.291931,-16.933069 7.937499,-25.4000008 0.529442,-0.5289127 1.058598,-1.0580688 1.5875,-1.5875 0.529442,0.5294418 1.058598,1.0585979 1.5875,1.5875 2.646151,8.4671008 5.291932,16.9335988 7.9375,25.4000008 -0.528912,0.529441 -1.058068,1.058598 -1.5875,1.5875 -0.528912,-0.528913 -1.058068,-1.058069 -1.5875,-1.5875 -2.116444,-6.87904 -4.233068,-13.758069 -6.35,-20.6375009 -2.116444,6.8795699 -4.233068,13.7585989 -6.35,20.6375009 -0.528912,0.529441 -1.058068,1.058598 -1.587499,1.5875 z" />
      <path
         style="fill:url(#linearGradient2701);fill-opacity:1;stroke:none;stroke-width:0.264583;stroke-linecap:round;stroke-linejoin:round;stroke-miterlimit:4;stroke-dasharray:none;stroke-opacity:1"
         d="m 50.8,30.1625 c 0.529034,-1.33e-4 1.058201,-0.529299 1.322785,-4.233403 0.264583,-3.704103 0.264583,-10.583132 2.381387,-10.58304 2.116805,9.2e-5 6.350053,6.87912 8.731345,10.583269 2.381293,3.70415 2.910449,4.233306 3.439489,4.233168 0.52904,-1.37e-4 1.058196,-0.529294 1.322779,-5.027163 0.264583,-4.497869 0.264583,-12.964366 1.27e-4,-17.4622876 C 67.733455,3.1751217 67.204299,2.6459657 66.674995,2.6458388 66.145691,2.645712 65.616535,3.174868 65.616551,6.8792454 65.616567,10.583623 66.145723,17.462651 64.029103,17.462591 61.912482,17.462532 57.150077,10.583503 54.504266,6.8793126 51.858455,3.1751217 51.329299,2.6459656 50.799995,2.6458388 50.270691,2.6457119 49.741535,3.174868 49.476951,7.673001 49.212368,12.171134 49.212368,20.637632 49.477089,25.135554 49.74181,29.633476 50.270966,30.162632 50.8,30.1625 Z"
         id="path1764"
         inkscape:path-effect="#path-effect1766"
         inkscape:original-d="m 50.799868,30.691534 c 0.529431,-0.528902 1.058598,-1.058069 1.5875,-1.5875 2.65e-4,-6.87904 2.65e-4,-13.758069 0,-20.6374996 4.233683,6.8795686 8.466931,13.7585976 12.7,20.6374996 0.529442,0.529441 1.058598,1.058598 1.5875,1.5875 0.529442,-0.528913 1.058598,-1.058069 1.5875,-1.5875 2.64e-4,-8.466572 2.64e-4,-16.933069 0,-25.3999994 -0.528913,-0.5289127 -1.058069,-1.0580688 -1.5875,-1.5875001 -0.528913,0.5294419 -1.058069,1.058598 -1.5875,1.5875001 0.529442,6.8795694 1.058598,13.7585974 1.5875,20.6374994 -4.762331,-6.87904 -9.524735,-13.758069 -14.2875,-20.6374995 -0.528913,-0.5289127 -1.058069,-1.0580688 -1.5875,-1.5875 -0.528913,0.5294418 -1.058069,1.0585979 -1.5875,1.5875 2.65e-4,8.4670995 2.65e-4,16.9335975 0,25.3999995 0.529442,0.529441 1.058598,1.058598 1.5875,1.5875 z" />
      <path
         style="fill:url(#linearGradient2701);fill-opacity:1;stroke:none;stroke-width:0.264583;stroke-linecap:round;stroke-linejoin:round;stroke-miterlimit:4;stroke-dasharray:none;stroke-opacity:1"
         d="m 74.6125,30.1625 c -0.529034,1.32e-4 -1.058202,-0.529036 0,-5.027087 1.058202,-4.498051 3.703982,-12.964547 5.291513,-17.4625517 1.58753,-4.4980041 2.116688,-5.0271622 2.645992,-5.0270245 0.529303,1.376e-4 1.058461,0.5292956 2.645904,5.0273223 1.587443,4.4980269 4.233223,12.9645229 5.291503,17.4622859 1.05828,4.497763 0.529121,5.026922 8.2e-5,5.027049 -0.529038,1.28e-4 -1.058196,-0.52903 -2.381218,-4.233241 -1.323021,-3.70421 -3.439645,-10.583238 -5.556408,-10.583242 -2.116762,-5e-6 -4.233386,6.879023 -5.556281,10.58311 -1.322895,3.704087 -1.852054,4.233246 -2.381087,4.233379 z"
         id="path1805"
         inkscape:path-effect="#path-effect1807"
         inkscape:original-d="m 74.612367,30.691533 c -0.5289,-0.528902 -1.05807,-1.058069 -1.5875,-1.5875 2.64615,-8.466572 5.29193,-16.933069 7.9375,-25.3999995 0.52944,-0.5289127 1.0586,-1.0580688 1.5875,-1.5875 0.52944,0.5294418 1.0586,1.0585979 1.5875,1.5875 2.646151,8.4671005 5.29193,16.9335975 7.9375,25.3999995 -0.52891,0.529441 -1.05807,1.058598 -1.5875,1.5875 -0.52891,-0.528913 -1.05807,-1.058069 -1.5875,-1.5875 -2.11645,-6.87904 -4.23307,-13.758069 -6.35,-20.6374996 -2.11645,6.8795686 -4.23307,13.7585976 -6.35,20.6374996 -0.52891,0.529441 -1.05807,1.058598 -1.5875,1.5875 z" />
    </g>
    <g
       id="g4168"
       style="fill:url(#linearGradient4206);fill-opacity:1">
      <path
         style="font-variation-settings:normal;vector-effect:none;fill:url(#linearGradient4206);fill-opacity:1;stroke:none;stroke-width:0.264583px;stroke-linecap:butt;stroke-linejoin:miter;stroke-miterlimit:4;stroke-dasharray:none;stroke-dashoffset:0;stroke-opacity:1;-inkscape-stroke:none;stop-color:#000000"
         d="M 100.80643,6.3502901 C 99.483598,2.646098 98.954431,2.1169311 98.425127,2.1168043 c -0.529304,-1.269e-4 -1.05846,0.5290292 -5.1e-5,5.0271889 1.058409,4.4981598 3.704194,12.9646558 5.291774,17.4625528 1.58759,4.497896 2.11675,5.027054 2.64579,5.026916 0.52904,-1.37e-4 1.05819,-0.529295 2.64569,-5.027214 1.5875,-4.497918 4.23328,-12.964415 5.29177,-17.4622874 1.05849,-4.4978719 0.52933,-5.02703 3e-5,-5.0271573 -0.52931,-1.274e-4 -1.05846,0.5290307 -2.38143,4.233349 -1.32296,3.7043177 -3.43958,10.5833487 -5.5562,10.5833547 -2.11661,6e-6 -4.23324,-6.879025 -5.55607,-10.5832169 z"
         id="path2487"
         inkscape:path-effect="#path-effect2489"
         inkscape:original-d="M 100.0125,3.1750001 C 99.483598,2.646098 98.954431,2.1169312 98.425,1.5875 c -0.528913,0.5294418 -1.058069,1.058598 -1.5875,1.5875001 2.646151,8.4671009 5.29193,16.9335979 7.9375,25.4000009 0.52944,0.529442 1.0586,1.058598 1.5875,1.5875 0.52944,-0.528913 1.0586,-1.058069 1.5875,-1.5875 2.64615,-8.466572 5.29193,-16.93307 7.9375,-25.4000009 C 115.35859,2.6460874 114.82943,2.1169312 114.3,1.5875 c -0.52891,0.5294418 -1.05807,1.058598 -1.5875,1.5875001 -2.11644,6.8795689 -4.23307,13.7585979 -6.35,20.6374999 -2.11644,-6.87904 -4.23307,-13.758069 -6.35,-20.6374999 z" />
      <path
         id="path2513"
         style="fill:url(#linearGradient4206);fill-opacity:1;stroke:none;stroke-width:0.264583;stroke-linecap:round;stroke-linejoin:round;stroke-miterlimit:4;stroke-dasharray:none;stroke-opacity:1;paint-order:fill markers stroke"
         d="M 130.96875,3.1750001 A 8.7312497,12.700001 0 0 0 122.2375,15.875 8.7312497,12.700001 0 0 0 130.96875,28.575001 8.7312497,12.700001 0 0 0 139.7,15.875 8.7312497,12.700001 0 0 0 130.96875,3.1750001 Z m 0,3.1750001 A 5.5562501,9.5250005 0 0 1 136.525,15.875 5.5562501,9.5250005 0 0 1 130.96875,25.400001 5.5562501,9.5250005 0 0 1 125.4125,15.875 5.5562501,9.5250005 0 0 1 130.96875,6.3500002 Z" />
      <path
         style="font-variation-settings:normal;vector-effect:none;fill:url(#linearGradient4206);fill-opacity:1;stroke:none;stroke-width:0.264583px;stroke-linecap:butt;stroke-linejoin:miter;stroke-miterlimit:4;stroke-dasharray:none;stroke-dashoffset:0;stroke-opacity:1;-inkscape-stroke:none;stop-color:#000000"
         d="m 147.37305,3.4395829 c -1.85222,0.2645828 -2.38138,0.793751 -2.38125,1.3230544 1.4e-4,0.5293035 0.5293,1.0584616 1.32306,1.3229121 0.79376,0.2644505 1.85207,0.2644505 2.3811,3.4396461 0.52904,3.1751955 0.52904,9.5250695 0,12.6999365 C 148.16691,25.4 147.1086,25.4 146.31471,25.664588 c -0.79389,0.264588 -1.32304,0.793747 -1.32291,1.32305 1.4e-4,0.529304 0.5293,1.058462 2.38141,1.322912 1.85212,0.264451 5.02705,0.264451 6.87901,-1.37e-4 1.85196,-0.264588 2.38111,-0.793747 2.38124,-1.322785 1.3e-4,-0.529039 -0.52903,-1.058197 -1.32279,-1.322913 C 154.51691,25.4 153.4586,25.4 152.9293,22.225069 152.4,19.050138 152.4,12.700264 152.92931,9.525132 c 0.52931,-3.1751321 1.58762,-3.1751321 2.38124,-3.4397203 0.79363,-0.2645881 1.32278,-0.7937462 1.32291,-1.3227847 1.3e-4,-0.5290384 -0.52903,-1.0581963 -2.38114,-1.3229116 -1.85212,-0.2647153 -5.02706,-0.2647153 -6.87927,-1.325e-4 z"
         id="path2909"
         inkscape:path-effect="#path-effect2911"
         inkscape:original-d="m 146.05,3.1750001 c -0.5289,0.5294312 -1.05807,1.0585977 -1.5875,1.5874998 0.52944,0.5294418 1.0586,1.0585979 1.5875,1.5875 1.05862,2.646e-4 2.11693,2.646e-4 3.175,0 2.6e-4,6.3503911 2.6e-4,12.7002651 0,19.0500001 -1.05809,2.64e-4 -2.1164,2.64e-4 -3.175,0 -0.52891,0.529442 -1.05807,1.058599 -1.5875,1.587501 0.52944,0.529442 1.0586,1.058598 1.5875,1.5875 3.17533,2.64e-4 6.35026,2.64e-4 9.525,0 0.52944,-0.528913 1.0586,-1.058069 1.5875,-1.5875 -0.52891,-0.528913 -1.05807,-1.05807 -1.5875,-1.587501 -1.05809,2.64e-4 -2.1164,2.64e-4 -3.175,0 2.6e-4,-6.349862 2.6e-4,-12.699736 0,-19.0500001 1.05862,2.646e-4 2.11693,2.646e-4 3.175,0 0.52944,-0.5289127 1.0586,-1.0580688 1.5875,-1.5875 -0.52891,-0.5289127 -1.05807,-1.0580686 -1.5875,-1.5874998 -3.1748,2.646e-4 -6.34974,2.646e-4 -9.525,0 z" />
      <path
         style="font-variation-settings:normal;vector-effect:none;fill:url(#linearGradient4206);fill-opacity:1;stroke:none;stroke-width:0.264583px;stroke-linecap:butt;stroke-linejoin:miter;stroke-miterlimit:4;stroke-dasharray:none;stroke-dashoffset:0;stroke-opacity:1;-inkscape-stroke:none;stop-color:#000000"
         d="m 170.12731,2.6458584 c -2.91051,-7.94e-5 -5.55634,1.0582528 -7.40853,3.4396549 -1.85218,2.3814022 -2.9105,6.0854947 -2.91042,9.7897677 8e-5,3.704274 1.0584,7.408367 2.91062,9.789534 1.85222,2.381168 4.498,3.43948 7.40837,3.439379 2.91037,-1.01e-4 6.0853,-1.058411 7.67273,-2.116598 1.58742,-1.058186 1.58742,-2.116498 1.32296,-2.910253 -0.26445,-0.793754 -0.79361,-1.322912 -1.32291,-1.32304 -0.52931,-1.27e-4 -1.05846,0.529031 -1.32305,1.058335 -0.26458,0.529304 -0.26458,1.05846 -1.32284,1.587477 -1.05827,0.529017 -3.17489,1.058173 -5.29151,0.79368 -2.11663,-0.264492 -4.23325,-1.322803 -5.5563,-3.174839 -1.32305,-1.852037 -1.8522,-4.497818 -1.85225,-7.143728 -4e-5,-2.645911 0.52911,-5.291691 1.85212,-7.1439128 1.32301,-1.8522213 3.43964,-2.9105357 5.55643,-3.1750484 2.11679,-0.2645127 4.23342,0.2646447 5.29159,0.7939098 1.05818,0.5292651 1.05818,1.0584212 1.3229,1.5875927 0.26472,0.5291716 0.79388,1.0583296 1.32292,1.058192 0.52904,-1.377e-4 1.05819,-0.5292957 1.32278,-1.3229235 0.26458,-0.7936278 0.26458,-1.85194 -1.32279,-2.9103634 -1.58738,-1.0584234 -4.76232,-2.1167366 -7.67282,-2.116816 z"
         id="path3268"
         inkscape:path-effect="#path-effect3270"
         inkscape:original-d="m 169.8625,1.5875 c -2.64557,1.058598 -5.2914,2.1169313 -7.9375,3.1749999 -1.05809,3.7045054 -2.1164,7.4085981 -3.175,11.1125001 1.05862,3.704505 2.11693,7.408598 3.175,11.112501 2.64615,1.058619 5.29193,2.116931 7.9375,3.175 3.17533,-1.05809 6.35026,-2.116402 9.525,-3.175 2.6e-4,-1.058091 2.6e-4,-2.116403 0,-3.175001 -0.52891,-0.528913 -1.05807,-1.058069 -1.5875,-1.5875 -0.52891,0.529442 -1.05807,1.058598 -1.5875,1.5875 2.6e-4,0.529442 2.6e-4,1.058598 0,1.5875 -2.11645,0.529442 -4.23307,1.058599 -6.35,1.587501 -2.11645,-1.058091 -4.23307,-2.116403 -6.35,-3.175001 -0.52891,-2.645622 -1.05807,-5.291402 -1.5875,-7.9375 0.52944,-2.645622 1.0586,-5.291402 1.5875,-7.9375001 2.11697,-1.0580899 4.2336,-2.1164021 6.35,-3.175 2.11697,0.5294418 4.2336,1.0585979 6.35,1.5875 2.6e-4,0.5294418 2.6e-4,1.0585979 0,1.5875 0.52944,0.5294419 1.0586,1.058598 1.5875,1.5875001 0.52944,-0.5289127 1.0586,-1.0580688 1.5875,-1.5875001 2.6e-4,-1.0580899 2.6e-4,-2.1164021 0,-3.175 C 176.2127,3.7044102 173.03776,2.646098 169.8625,1.5875 Z" />
      <path
         id="path3305"
         style="font-variation-settings:normal;vector-effect:none;fill:url(#linearGradient4206);fill-opacity:1;stroke:none;stroke-width:0.264583px;stroke-linecap:butt;stroke-linejoin:miter;stroke-miterlimit:4;stroke-dasharray:none;stroke-dashoffset:0;stroke-opacity:1;-inkscape-stroke:none;stop-color:#000000"
         d="m 191.82292,3.1750001 c -2.91043,0 -4.49778,-4.5e-6 -5.55625,0.2645833 -1.05847,0.2645879 -1.5875,0.7935442 -1.85208,4.7625001 -0.26459,3.9689555 -0.26472,11.3775955 0,15.3463505 0.26472,3.968755 0.79421,4.497532 3.96926,4.761983 3.17506,0.264451 8.99545,0.264589 12.17032,0 3.17487,-0.264588 3.70404,-0.793877 3.70417,-1.322916 1.3e-4,-0.52904 -0.52912,-1.058202 -3.175,-1.322917 -2.64588,-0.264715 -7.40833,-0.264711 -10.05417,-0.529167 -2.64583,-0.264456 -3.17487,-0.793697 -3.43958,-3.704166 -0.26472,-2.91047 -0.26459,-8.201947 0,-11.112501 0.26459,-2.9105535 0.79357,-3.4395837 3.43958,-3.7041665 2.64601,-0.2645828 7.40846,-0.2645786 10.05417,-0.5291667 2.64571,-0.2645881 3.17487,-0.7938783 3.175,-1.3229167 1.3e-4,-0.5290383 -0.52917,-1.0582013 -2.91042,-1.3229167 -2.38125,-0.2647153 -6.61456,-0.2645833 -9.525,-0.2645833 z m 2.64583,11.1786459 c -1.05833,-1.6e-5 -2.1166,0.06615 -2.91041,0.198438 -1.58763,0.264583 -2.11681,0.793613 -2.11667,1.322916 1.4e-4,0.529304 0.52966,1.058467 2.11718,1.322917 1.58753,0.264451 4.23295,0.264588 5.82032,0 1.58737,-0.264588 2.11654,-0.793878 2.11667,-1.322917 1.3e-4,-0.529038 -0.52914,-1.058201 -2.11667,-1.322916 -0.79376,-0.132358 -1.85208,-0.198421 -2.91042,-0.198438 z" />
    </g>
  </g>
  <metadata
     id="metadata2783">
    <rdf:RDF>
      <cc:Work
         rdf:about="">
        <dc:title>KanaVoice Logo</dc:title>
        <dc:date>2023/01/13</dc:date>
        <dc:creator>
          <cc:Agent>
            <dc:title>Renorari</dc:title>
          </cc:Agent>
        </dc:creator>
        <dc:rights>
          <cc:Agent>
            <dc:title>(c) 2022 Renorari</dc:title>
          </cc:Agent>
        </dc:rights>
        <dc:subject>
          <rdf:Bag>
            <rdf:li>Kana</rdf:li>
            <rdf:li>Logo</rdf:li>
            <rdf:li>Renorari</rdf:li>
          </rdf:Bag>
        </dc:subject>
        <dc:description>Kanaに使用されるロゴです。</dc:description>
      </cc:Work>
    </rdf:RDF>
  </metadata>
</svg>
